<?xml version="1.0" encoding="UTF-8"?><svg id="Laag_2" xmlns="http://www.w3.org/2000/svg" viewBox="0 0 329.91 329.98"><defs><style>.cls-1{fill:#fff;}</style></defs><g id="Laag_1-2"><path class="cls-1" d="M329.9,165.16c0,40.67,.03,81.33-.01,122-.02,21.71-14.44,38.74-35.81,42.37-2.07,.35-4.22,.34-6.34,.34-22.08,.02-44.16-.08-66.24,.1-3.88,.03-4.88-1.29-4.88-4.93,.09-42.54,.05-85.08,.06-127.61,0-4.99,.11-5.08,4.96-5.08,10.73-.01,21.46-.08,32.18,.04,2.66,.03,3.77-.78,4-3.51,1.07-12.53,2.3-25.05,3.47-37.58,.26-2.73,.59-5.45,.73-8.19,.26-4.9,.21-4.91-4.88-4.91-11.23,0-22.46-.12-33.68,.07-3.63,.06-4.89-1.21-4.7-4.75,.37-6.84-.55-13.73,.51-20.54,1.03-6.61,4.16-9.71,10.77-10.45,9.07-1.03,18.19-.37,27.29-.37,3.5,0,4.81-.93,4.74-4.63-.21-12.47-.19-24.95,0-37.42,.05-3.37-1.11-4.23-4.32-4.19-13.22,.14-26.45-.22-39.67,.09-13.19,.3-25.73,3.12-36.3,11.78-10.59,8.68-15.92,20.24-18.1,33.43-1.74,10.53-.62,21.16-.88,31.75-.12,5.15-.12,5.24-5.23,5.25-6.11,.01-12.23,.1-18.34-.04-2.79-.07-4.03,.66-4,3.75,.13,15.59,.1,31.19,.02,46.78-.02,2.76,.97,3.76,3.72,3.7,6.36-.13,12.73,.16,19.08-.11,3.78-.16,4.92,1.09,4.91,4.87-.12,34.3-.07,68.61-.07,102.91,0,8.61-.1,17.22,.05,25.82,.05,3.12-1.12,4.06-4.16,4.05-39.67-.08-79.34,.07-119.01-.13-20.69-.1-39.66-19.09-39.69-39.8C-.03,206.68-.03,123.35,.09,40.02,.12,19.11,19.12,.12,40.04,.09c83.21-.12,166.41-.12,249.62,0,21.35,.03,40.12,19,40.19,40.46,.13,41.54,.04,83.08,.04,124.62h.02Z"/></g></svg>