<?xml version="1.0" encoding="UTF-8"?><svg id="Laag_2" xmlns="http://www.w3.org/2000/svg" viewBox="0 0 342.7 342.69"><defs><style>.cls-1{fill:#fff;}</style></defs><g id="Laag_1-2"><g><path class="cls-1" d="M75.55,0C139.29,0,203.04,0,266.78,0c.75,.18,1.5,.41,2.26,.53,12.28,1.89,23.79,5.94,34.09,12.89,24.84,16.77,38.99,40.08,39.27,70.19,.55,58.36,.15,116.74,.19,175.11,0,5.38-.7,10.67-1.82,15.89-8.58,40-44.71,68.37-85.05,68.08-56.36-.4-112.73-.1-169.09-.1-4.23,0-8.45-.02-12.66-.7-30.21-4.91-52.12-21.11-65.94-48.35C3.76,285.11,1.68,276,0,266.78,0,203.04,0,139.29,0,75.55c.33-1.52,.7-3.03,.99-4.56C6.48,42.22,22.5,21.42,48.5,8.17,57.02,3.83,66.22,1.69,75.55,0Zm95.37,313.37c27.97,0,55.93,0,83.9,0,3.34,0,6.65-.13,9.99-.59,27.22-3.76,48.45-27.57,48.51-55.05,.13-57.71,.03-115.43,.05-173.14,0-3.25-.41-6.45-1.04-9.61-5.39-27.07-28.21-45.96-55.84-46-56.82-.07-113.64-.02-170.47-.02-2.79,0-5.54,.19-8.32,.58-27.55,3.88-48.63,27.53-48.69,55.23-.12,57.6-.03,115.2-.05,172.8,0,3.47,.45,6.89,1.15,10.27,5.53,26.73,28.27,45.42,55.58,45.51,28.41,.09,56.82,.02,85.23,.03Z"/><path class="cls-1" d="M257,171.35c-.05,47.53-38.39,85.7-86.03,85.65-47.54-.05-85.69-38.38-85.64-86.03,.05-47.55,38.36-85.69,86.02-85.64,47.54,.05,85.7,38.37,85.65,86.02Zm-86.03,56.43c31.27,.04,56.72-25.2,56.8-56.33,.08-31.27-25.17-56.81-56.25-56.89-31.46-.08-56.94,25.19-56.97,56.5-.03,31.24,25.28,56.68,56.42,56.72Z"/><path class="cls-1" d="M242.22,79.19c-.75-11.39,8.63-21.68,20.5-22.48,11.76-.79,22.24,8.73,22.92,20.83,.66,11.8-8.71,21.85-21.09,22.61-11.52,.71-21.52-8.68-22.33-20.96Z"/></g></g></svg>