<?xml version="1.0" encoding="UTF-8"?><svg id="Laag_2" xmlns="http://www.w3.org/2000/svg" viewBox="0 0 345.59 345.59"><defs><style>.cls-1{fill:#fff;}</style></defs><g id="Laag_1-2"><path class="cls-1" d="M305.8,345.59H40.06c-.54-.15-1.07-.33-1.62-.45C15.13,340.14,.01,321.51,.01,297.7,0,214.07-.01,130.44,.02,46.81,.04,21.03,21.04,.03,46.82,.02,130.9-.02,214.97,.01,299.05,0c10.63,0,20.08,3.38,28.46,9.8,10.03,7.67,15.64,18.03,18.08,30.26V305.8c-1.63,7.74-4.38,14.99-9.23,21.35-7.77,10.18-18.16,15.97-30.56,18.45ZM138.8,208.47c0,20.79,0,41.57,0,62.36,0,7.51,2.19,9.73,9.57,9.75,8.65,.01,17.3,.02,25.96,0,7.18-.02,9.23-2.05,9.23-9.19,.01-21.69-.09-43.37,.05-65.06,.05-8.32,1.94-16.3,6.65-23.33,5.19-7.73,12.71-10.81,21.79-10.04,9.61,.81,15.99,5.94,19.12,15.08,1.87,5.47,2.65,11.13,2.65,16.89,.02,22.14,0,44.27,0,66.41,0,7.08,1.71,8.86,8.66,8.88,9.55,.03,19.1,.04,28.65,0,6.57-.03,8.7-2.11,8.72-8.66,.1-26.52,.09-53.04-.68-79.54-.31-10.7-2.24-21.22-6.67-31.11-5.68-12.69-15.16-20.99-28.7-24.41-10.41-2.63-20.91-2.52-31.41-.63-10.62,1.91-19.28,7.11-25.86,15.73-.56,.73-.98,2.14-2.19,1.63-1.07-.45-.68-1.78-.71-2.75-.06-2.13,0-4.27-.04-6.4-.11-5.24-2.18-7.31-7.45-7.34-9.33-.04-18.65-.02-27.98-.01-7.34,0-9.37,2.02-9.37,9.4-.01,20.79,0,41.57,0,62.36Zm-21.32,.37c0-21.24,.02-42.49-.01-63.73,0-6.12-2.27-8.39-8.31-8.42-9.1-.04-18.21-.03-27.31,0-6.67,.02-9.14,2.47-9.14,9.15-.01,41.81-.01,83.62,0,125.43,0,6.54,2.67,9.25,9.19,9.29,8.77,.05,17.53,.04,26.3,0,6.87-.02,9.28-2.45,9.28-9.35,.01-20.79,0-41.59,0-62.38Zm-51.14-114.28c.07,16.13,12.87,28.93,28.91,28.89,16.11-.04,28.96-13.06,28.91-29.31-.05-15.82-13.42-29.05-29.16-28.84-15.97,.21-28.73,13.24-28.66,29.26Z"/></g></svg>