<?xml version="1.0" encoding="UTF-8"?><svg id="Laag_2" xmlns="http://www.w3.org/2000/svg" viewBox="0 0 392.11 203.82"><defs><style>.cls-1{letter-spacing:.12em;}.cls-1,.cls-2{font-family:Alittlesunshine, 'A little sunshine';font-size:60px;stroke-linecap:round;stroke-width:5px;}.cls-1,.cls-2,.cls-3{fill:#fff;stroke:#fff;stroke-linejoin:round;}.cls-2{letter-spacing:.29em;}.cls-3{stroke-width:4px;}</style></defs><g id="Laag_1-2"><path class="cls-3" d="M74.66,109.33c-.71-13.96-1.38-27.21-2.09-41.33-2.37,1.43-3.74,2.2-5.03,3.04-11.97,7.85-24.57,15.11-38.31,21.31-2.61,1.18-5.34,2.23-8.08,3.24-1.27,.47-2.74,.98-4.08,.93-1.17-.04-2.29-.85-3.43-1.32,.63-.7,1.03-1.68,1.93-2.06,3.27-1.39,6.84-2.42,10.05-3.87,15.73-7.14,29.95-15.65,43.44-24.83,2.41-1.64,2.81-3.34,2.61-5.58-.88-9.91-1.74-19.84,.55-29.72,1.45-6.26,4.3-12.15,9.56-17.32,4.05-3.97,8.99-7.18,15.56-8.87,11.95-3.08,21.37,1.53,21.69,10.6,.16,4.54-1.58,8.78-3.89,12.93-4.57,8.21-11.26,15.51-18.89,22.36-4.99,4.48-10.34,8.77-15.75,12.99-1.9,1.48-2.6,2.93-2.49,4.89,.79,14.23,1.48,28.46,2.15,42.69,.07,1.47,.19,2.75,1.9,3.87,8.78,5.75,13.59,13.18,16.32,21.3,3.11,9.26,5.76,18.61,8.71,27.9,2.03,6.39,4.88,12.55,9.66,18.22,3.71,4.39,8.72,7.23,15.76,8.25,2.66,.38,5.25,1.01,7.85,1.59,1.67,.37,3.1,1.05,2.7,2.5-.42,1.54-2.2,1.58-3.87,1.39-12.75-1.47-23.48-4.92-29.54-13.98-4.86-7.27-7.72-14.9-10.11-22.69-2.23-7.27-4.29-14.56-6.68-21.8-1.82-5.49-4.71-10.71-9.43-15.3-.63-.61-1.37-1.15-2.34-1.95-1.65,1.75-1.12,3.46-1.18,5.04-.39,10.74-1.88,21.39-5.62,31.81-4.41,12.29-11.59,23.65-23.02,33.43-3.14,2.68-6.8,5.08-10.45,7.42-2.01,1.29-4.39,2.33-6.79,3.23-12.31,4.62-22.98,1.75-28.25-7.54-3.67-6.45-4.2-13.25-3.51-20.05,1.94-19.23,11.64-36.25,29.06-50.93,2-1.68,4.21-3.26,6.53-4.72,10.29-6.46,21.5-10.8,36.81-7.07Zm-.3,13.35c0-1.83,.01-3.66,0-5.49-.03-3.17-.2-3.33-4.54-4.41-6.1-1.52-11.83-.59-17.35,1.4-7.46,2.67-13.43,6.68-18.61,11.29-15.3,13.6-23.81,29.19-25.8,46.59-.74,6.43-.15,12.83,3.42,18.87,3.89,6.56,10.71,8.53,19.3,5.05,4.97-2.01,9.59-4.76,13.54-7.74,10.06-7.59,16.57-16.77,21.33-26.62,6.09-12.61,7.86-25.71,8.72-38.94Zm3.09-64.93c1.32-.78,2.06-1.11,2.63-1.56,8.63-6.74,16.8-13.78,23.02-21.8,3.43-4.42,6.18-9.15,8.68-13.89,1.19-2.25,1.59-4.88,1.44-7.3-.36-5.83-5.83-8.34-13.52-6.49-4.61,1.11-8.29,3.19-11.42,5.81-4.85,4.05-7.71,8.82-9.44,13.96-2.59,7.7-2.55,15.54-2.09,23.39,.14,2.45,.44,4.89,.71,7.88Z"/><text class="cls-1" transform="translate(115.47 165.54)"><tspan x="0" y="0">Versmissen</tspan></text><text class="cls-2" transform="translate(114.29 106.98)"><tspan x="0" y="0">ise</tspan></text></g></svg>