<?xml version="1.0" encoding="UTF-8"?><svg id="Laag_2" xmlns="http://www.w3.org/2000/svg" viewBox="0 0 350.69 350.88"><defs><style>.cls-1{fill:#fff;}</style></defs><g id="Laag_1-2"><path class="cls-1" d="M350.69,56.8v236.79c-.11,.44-.28,.87-.34,1.32-3.78,29.21-31.9,56.29-66.78,55.96-72.06-.69-144.13-.21-216.2-.22-3.76,0-7.49-.09-11.25-.59C25.14,345.95,.13,317.99,.08,286.73c-.12-74.35-.1-148.69,0-223.04,.02-18.33,7.58-33.51,20.69-46.09C30.98,7.81,43.18,2.14,57.1,0,136.03,0,214.96,0,293.89,0c.44,.13,.86,.31,1.31,.37,15.3,2.21,27.87,9.45,38.36,20.62,9.52,10.13,15.02,22.15,17.13,35.81Zm-66.39,36.05c-8.17,3.96-16.37,7.27-25.05,9.38-2.71,.66-4.6,.24-6.72-1.73-24.82-23.05-65.62-12.92-76.89,19.03-2.66,7.55-3.42,15.33-2.12,23.24,.49,2.97-.23,4.41-3.45,3.87-.56-.09-1.14-.05-1.71-.11-36.4-3.89-66.9-19.3-91.17-46.78-2.16-2.45-3.01-1.89-4.18,.65-3.69,8.07-4.96,16.46-4.21,25.3,1.1,12.98,6.57,23.54,16.73,31.7,.91,.73,2.23,1.17,2.46,2.92-5.09,.43-9.69-1.16-14.39-2.37-2.33-.6-5.11-3.45-6.69-1.71-1.33,1.47-.23,5.01,.37,7.56,4.34,18.25,15.58,30.23,33.19,36.4,1.29,.45,2.89,.35,4.17,2.18-5.03,1.22-9.6,2.21-14.44,1.35-3.93-.69-4.61,.09-2.91,3.59,7.77,16.02,20.18,25.81,38.17,27.91,1.22,.14,2.54-.02,3.82,1.44-19.69,15.39-42.09,21.58-66.86,20.49,7.83,5.32,16.08,9.15,24.69,12.16,20.82,7.29,42.18,9.13,64.04,6.33,21.56-2.76,41.79-9.52,59.12-22.55,38.4-28.87,58.04-67.53,57.65-115.91-.02-1.94,.71-3.25,2.2-4.33,3.61-2.62,6.93-5.58,10.04-8.77,3.7-3.8,7.36-7.63,10.27-12.66-4.49,1.4-8.45,2.77-12.49,3.87-4.03,1.1-8.07,2.37-12.48,1.92,8.87-6.24,15.63-13.92,18.83-24.41Z"/></g></svg>